# xmcd
#
# Track frame offsets: 
#        150
#        12575
#        29057
#        43620
#        57980
#        72522
#        87032
#        100252
#        117422
#        130695
#        147145
#        161862
#        175830
#        188275
#        201765
#        214135
#        228372
#        242662
#
# Disc length: 3398 seconds
#
# Revision: 0
# Processed by: cddbd v1.5.2PL0 Copyright (c) Steve Scherf et al.
# Submitted via: ExactAudioCopy v0.99pb5
#
DISCID=fd0d4412
DTITLE=Abba - Waterloo
DYEAR=1974
DGENRE=Classical
TTITLE0=Waterloo
TTITLE1=Sitting in the Palmtree
TTITLE2=King Kong Song
TTITLE3=Hasta Mañana (English)
TTITLE4=My Mama Said
TTITLE5=Dance (While The Music Still Goes On)
TTITLE6=Honey, Honey
TTITLE7=Watch Out
TTITLE8=What About Livingstone
TTITLE9=Gonna Sing You My Lovesong
TTITLE10=Suzy-Hang-Around
TTITLE11=Ring Ring (US Remix 1974)
TTITLE12=Waterloo (Swedish Version)
TTITLE13=Honey, Honey (Swedish Version)
TTITLE14=Waterloo (German Version)
TTITLE15=Hasta Mañana (Spanish Version)
TTITLE16=Ring Ring (1974 Remix, Single Version)
TTITLE17=Waterloo (French Version)
EXTD=
EXTT0=
EXTT1=
EXTT2=
EXTT3=
EXTT4=
EXTT5=
EXTT6=
EXTT7=
EXTT8=
EXTT9=
EXTT10=
EXTT11=
EXTT12=
EXTT13=
EXTT14=
EXTT15=
EXTT16=
EXTT17=
PLAYORDER=
